<svg id="Layer_1" data-name="Layer 1" xmlns="http://www.w3.org/2000/svg" width="48" height="48" viewBox="0 0 48 48">
  <defs>
    <style>
      .cls-1 {
        fill: #ffd2d2;
        fill-opacity: 0;
      }

      .cls-2 {
        fill: none;
        stroke: #fff;
        stroke-linecap: round;
        stroke-linejoin: round;
        stroke-width: 2px;
      }
    </style>
  </defs>
  <g id="ic_sky" data-name="ic sky">
    <rect id="Rectangle_7" data-name="Rectangle 7" class="cls-1" width="48" height="48"/>
    <g id="Group_16" data-name="Group 16">
      <path id="Path_31" data-name="Path 31" class="cls-2" d="M43.74,28.18c0,4.45-4,8.07-8.8,8.07H12.81a8.8,8.8,0,0,1-8.73-7.58A7.8,7.8,0,0,1,4,27.49a8.79,8.79,0,0,1,8.81-8.75,8.64,8.64,0,0,1,3.61.77c.31-4.2,4.14-7.51,8.79-7.51a9.22,9.22,0,0,1,3.33.61A8.08,8.08,0,0,1,34,20.07v.1a6.91,6.91,0,0,1,.91,0,9.29,9.29,0,0,1,5.48,1.75A8.13,8.13,0,0,1,42,23.43,7.57,7.57,0,0,1,43.74,28.18Z" transform="translate(0 0)"/>
    </g>
  </g>
</svg>
