<svg id="Layer_1" data-name="Layer 1" xmlns="http://www.w3.org/2000/svg" width="48" height="48" viewBox="0 0 48 48">
  <defs>
    <style>
      .cls-1 {
        fill: #ffd2d2;
        fill-opacity: 0;
      }

      .cls-2 {
        fill: none;
        stroke: #fff;
        stroke-linecap: round;
        stroke-linejoin: round;
        stroke-width: 2px;
      }
    </style>
  </defs>
  <g id="ic_weather_1" data-name="ic weather 1">
    <rect id="Rectangle_7" data-name="Rectangle 7" class="cls-1" width="48" height="48"/>
    <g id="Group_17" data-name="Group 17">
      <path id="Path_32" data-name="Path 32" class="cls-2" d="M39.35,32.94c0,4.29-3.86,7.79-8.49,7.79H9.5a8.5,8.5,0,0,1-8.42-7.32A7.28,7.28,0,0,1,1,32.27a8.48,8.48,0,0,1,8.5-8.44,8.34,8.34,0,0,1,3.48.74c.3-4.05,4-7.24,8.48-7.24a8.86,8.86,0,0,1,3.22.58A7.83,7.83,0,0,1,30,25.11v.1q.43,0,.87,0a9,9,0,0,1,5.29,1.69,8.2,8.2,0,0,1,1.54,1.46,7.31,7.31,0,0,1,1.68,4.58Z" transform="translate(0 0)"/>
      <path id="Path_33" data-name="Path 33" class="cls-2" d="M39.18,21.2a6.86,6.86,0,0,1-3,5.62,9,9,0,0,0-5.29-1.69H30V25a7.79,7.79,0,0,0-5.27-7.2,7.8,7.8,0,0,1,6.75-3.72C35.73,14.15,39.18,17.32,39.18,21.2Z" transform="translate(0 0)"/>
      <line id="Line_82" data-name="Line 82" class="cls-2" x1="31.47" y1="7" x2="31.47" y2="10.33"/>
      <line id="Line_83" data-name="Line 83" class="cls-2" x1="20.5" y1="11.16" x2="23.08" y2="13.51"/>
      <line id="Line_84" data-name="Line 84" class="cls-2" x1="41.16" y1="28.45" x2="43.74" y2="30.81"/>
      <line id="Line_85" data-name="Line 85" class="cls-2" x1="43.36" y1="21.2" x2="47" y2="21.2"/>
      <line id="Line_86" data-name="Line 86" class="cls-2" x1="39.88" y1="13.51" x2="42.46" y2="11.16"/>
    </g>
  </g>
</svg>
