<svg id="Layer_1" data-name="Layer 1" xmlns="http://www.w3.org/2000/svg" width="48" height="48" viewBox="0 0 48 48">
  <defs>
    <style>
      .cls-1 {
        fill: #ffd2d2;
        fill-opacity: 0;
      }

      .cls-2 {
        fill: none;
        stroke: #fff;
        stroke-linecap: round;
        stroke-linejoin: round;
        stroke-width: 2px;
      }
    </style>
  </defs>
  <g id="ic_weather_14" data-name="ic weather 14">
    <rect id="Rectangle_7" data-name="Rectangle 7" class="cls-1" width="48" height="48"/>
    <g id="Group_27" data-name="Group 27">
      <path id="Path_169" data-name="Path 169" class="cls-2" d="M39,26.71c0,4.26-3.83,7.72-8.43,7.72H9.43a8.42,8.42,0,0,1-8.35-7.25A7.16,7.16,0,0,1,1,26.05a8.44,8.44,0,0,1,11.89-7.64c.3-4,4-7.19,8.41-7.19a8.93,8.93,0,0,1,3.19.59A7.71,7.71,0,0,1,29.72,19v.1a6.32,6.32,0,0,1,.87,0,8.82,8.82,0,0,1,5.25,1.67,7.74,7.74,0,0,1,1.52,1.45A7.25,7.25,0,0,1,39,26.71Z" transform="translate(0 0)"/>
      <path id="Path_170" data-name="Path 170" class="cls-2" d="M38.88,15.1a6.79,6.79,0,0,1-3,5.57A8.9,8.9,0,0,0,30.6,19h-.87v-.1a7.74,7.74,0,0,0-5.23-7.14,7.77,7.77,0,0,1,6.7-3.69C35.45,8.1,38.88,11.23,38.88,15.1Z" transform="translate(0 0)"/>
      <line id="Line_250" data-name="Line 250" class="cls-2" x1="31.23" y1="1" x2="31.23" y2="4.3"/>
      <line id="Line_251" data-name="Line 251" class="cls-2" x1="20.35" y1="5.13" x2="22.89" y2="7.47"/>
      <line id="Line_252" data-name="Line 252" class="cls-2" x1="40.84" y1="22.28" x2="43.39" y2="24.61"/>
      <line id="Line_253" data-name="Line 253" class="cls-2" x1="43.02" y1="15.1" x2="46.63" y2="15.1"/>
      <line id="Line_254" data-name="Line 254" class="cls-2" x1="39.57" y1="7.47" x2="42.12" y2="5.13"/>
      <line id="Line_255" data-name="Line 255" class="cls-2" x1="21.63" y1="37.25" x2="21.63" y2="40.6"/>
      <line id="Line_256" data-name="Line 256" class="cls-2" x1="21.63" y1="43.65" x2="21.63" y2="47"/>
      <line id="Line_257" data-name="Line 257" class="cls-2" x1="26.11" y1="35.1" x2="26.11" y2="37.73"/>
      <line id="Line_258" data-name="Line 258" class="cls-2" x1="26.11" y1="41.73" x2="26.11" y2="45.08"/>
      <line id="Line_259" data-name="Line 259" class="cls-2" x1="17.13" y1="35.1" x2="17.13" y2="37.73"/>
      <line id="Line_260" data-name="Line 260" class="cls-2" x1="17.13" y1="41.73" x2="17.13" y2="45.08"/>
    </g>
  </g>
</svg>
