<svg id="Layer_1" data-name="Layer 1" xmlns="http://www.w3.org/2000/svg" width="48" height="48" viewBox="0 0 48 48">
  <defs>
    <style>
      .cls-1 {
        fill: #ffd2d2;
        fill-opacity: 0;
      }

      .cls-2 {
        fill: none;
        stroke: #fff;
        stroke-linecap: round;
        stroke-linejoin: round;
        stroke-width: 2px;
      }
    </style>
  </defs>
  <g id="ic_weather_16" data-name="ic weather 16">
    <rect id="Rectangle_7" data-name="Rectangle 7" class="cls-1" width="48" height="48"/>
    <g id="Group_32" data-name="Group 32">
      <path id="Path_22" data-name="Path 22" class="cls-2" d="M21.56,30.67l-4.14,6.09h4.22L17.42,43" transform="translate(0 0)"/>
      <path id="Path_23" data-name="Path 23" class="cls-2" d="M29.18,30.62,25,36.71h4.22L25,42.91" transform="translate(0 0)"/>
      <path id="Path_24" data-name="Path 24" class="cls-2" d="M43.74,22.18c0,4.45-4,8.07-8.8,8.07H12.81a8.8,8.8,0,0,1-8.73-7.58A7.8,7.8,0,0,1,4,21.49a8.79,8.79,0,0,1,8.81-8.75,8.64,8.64,0,0,1,3.61.77C16.73,9.31,20.56,6,25.21,6a9.22,9.22,0,0,1,3.33.61A8.08,8.08,0,0,1,34,14.07v.1a6.91,6.91,0,0,1,.91,0,9.29,9.29,0,0,1,5.48,1.75A8.13,8.13,0,0,1,42,17.43,7.57,7.57,0,0,1,43.74,22.18Z" transform="translate(0 0)"/>
    </g>
  </g>
</svg>
