<svg id="Layer_1" data-name="Layer 1" xmlns="http://www.w3.org/2000/svg" width="48" height="48" viewBox="0 0 48 48">
  <defs>
    <style>
      .cls-1 {
        fill: #ffd2d2;
        fill-opacity: 0;
      }

      .cls-2 {
        fill: none;
        stroke: #fff;
        stroke-linecap: round;
        stroke-linejoin: round;
        stroke-width: 2px;
      }
    </style>
  </defs>
  <g id="ic_weather_17" data-name="ic weather 17">
    <rect id="Rectangle_7" data-name="Rectangle 7" class="cls-1" width="48" height="48"/>
    <g id="Group_33" data-name="Group 33">
      <path id="Path_12" data-name="Path 12" class="cls-2" d="M18.59,35.22l-4,5.84h4.06L14.62,47" transform="translate(0 0)"/>
      <path id="Path_13" data-name="Path 13" class="cls-2" d="M25.89,35.16l-4,5.84H26l-4.06,5.94" transform="translate(0 0)"/>
      <path id="Path_14" data-name="Path 14" class="cls-2" d="M39.08,26.75c0,4.26-3.83,7.73-8.43,7.73H9.45a8.43,8.43,0,0,1-8.37-7.26A8.71,8.71,0,0,1,1,26.09,8.43,8.43,0,0,1,9.45,17.7a8.28,8.28,0,0,1,3.46.74c.3-4,4-7.2,8.42-7.2a8.76,8.76,0,0,1,3.2.58A7.75,7.75,0,0,1,29.77,19v.1q.43,0,.87,0a8.9,8.9,0,0,1,5.25,1.68,7.52,7.52,0,0,1,1.53,1.45A7.25,7.25,0,0,1,39.08,26.75Z" transform="translate(0 0)"/>
      <path id="Path_15" data-name="Path 15" class="cls-2" d="M38.93,15.14a6.8,6.8,0,0,1-3,5.58A8.92,8.92,0,0,0,30.65,19h-.87V19a7.75,7.75,0,0,0-5.25-7.15,7.75,7.75,0,0,1,6.71-3.7C35.5,8.1,38.93,11.25,38.93,15.14Z" transform="translate(0 0)"/>
      <line id="Line_31" data-name="Line 31" class="cls-2" x1="31.27" y1="1" x2="31.27" y2="4.31"/>
      <line id="Line_32" data-name="Line 32" class="cls-2" x1="20.37" y1="5.13" x2="22.92" y2="7.47"/>
      <line id="Line_33" data-name="Line 33" class="cls-2" x1="40.9" y1="22.31" x2="43.45" y2="24.65"/>
      <line id="Line_34" data-name="Line 34" class="cls-2" x1="43.08" y1="15.11" x2="46.69" y2="15.11"/>
      <line id="Line_35" data-name="Line 35" class="cls-2" x1="39.62" y1="7.47" x2="42.18" y2="5.13"/>
    </g>
  </g>
</svg>
