<svg id="Layer_1" data-name="Layer 1" xmlns="http://www.w3.org/2000/svg" width="48" height="48" viewBox="0 0 48 48">
  <defs>
    <style>
      .cls-1 {
        fill: #ffd2d2;
        fill-opacity: 0;
      }

      .cls-2 {
        fill: none;
        stroke: #fff;
        stroke-linecap: round;
        stroke-linejoin: round;
        stroke-width: 2px;
      }
    </style>
  </defs>
  <g id="ic_weather_18" data-name="ic weather 18">
    <rect id="Rectangle_7" data-name="Rectangle 7" class="cls-1" width="48" height="48"/>
    <g id="Group_34" data-name="Group 34">
      <path id="Path_145" data-name="Path 145" class="cls-2" d="M18.18,35.13l-4,5.88h4.08l-4.08,6" transform="translate(0 0)"/>
      <path id="Path_146" data-name="Path 146" class="cls-2" d="M25.54,35.07l-4,5.89h4.08l-4.08,6" transform="translate(0 0)"/>
      <path id="Path_147" data-name="Path 147" class="cls-2" d="M46.92,17.73a12.35,12.35,0,0,1-7.82,7.1,7.27,7.27,0,0,0-1.36-2.56,7.91,7.91,0,0,0-1.54-1.46,9,9,0,0,0-5.29-1.7H30V19a7.82,7.82,0,0,0-5.29-7.21,9.32,9.32,0,0,0-1.46-.41A12.3,12.3,0,0,1,32.48,1,12.47,12.47,0,0,0,46.92,17.73Z" transform="translate(0 0)"/>
      <path id="Path_148" data-name="Path 148" class="cls-2" d="M39.45,27c0,4.3-3.86,7.8-8.5,7.8H9.51a8.48,8.48,0,0,1-8.43-7.32A7.28,7.28,0,0,1,1,26.29a8.49,8.49,0,0,1,8.47-8.51h0a8.59,8.59,0,0,1,3.49.75c.3-4.05,4-7.26,8.49-7.26a9,9,0,0,1,3.21.59A7.8,7.8,0,0,1,30,19.07v.09c.29,0,.59,0,.88,0a9,9,0,0,1,5.29,1.7,8.2,8.2,0,0,1,1.54,1.46,7.44,7.44,0,0,1,1.36,2.56A7,7,0,0,1,39.45,27Z" transform="translate(0 0)"/>
    </g>
  </g>
</svg>
