<svg id="Layer_1" data-name="Layer 1" xmlns="http://www.w3.org/2000/svg" width="48" height="48" viewBox="0 0 48 48">
  <defs>
    <style>
      .cls-1 {
        fill: #ffd2d2;
        fill-opacity: 0;
      }

      .cls-2 {
        fill: none;
        stroke: #fff;
        stroke-linecap: round;
        stroke-linejoin: round;
        stroke-width: 2px;
      }
    </style>
  </defs>
  <g id="ic_weather_2" data-name="ic weather 2">
    <rect id="Rectangle_7" data-name="Rectangle 7" class="cls-1" width="48" height="48"/>
    <g id="Group_18" data-name="Group 18">
      <path id="Path_29" data-name="Path 29" class="cls-2" d="M38.75,22.64a7.14,7.14,0,1,1-2.09-5.11A7.2,7.2,0,0,1,38.75,22.64Z" transform="translate(0 0)"/>
      <path id="Path_30" data-name="Path 30" class="cls-2" d="M39.34,32.93c0,4.3-3.86,7.79-8.49,7.79H9.51a8.48,8.48,0,0,1-8.42-7.31A7.3,7.3,0,0,1,1,32.27a8.48,8.48,0,0,1,8.51-8.44,8.19,8.19,0,0,1,3.48.74c.3-4.05,4-7.26,8.48-7.26a9.09,9.09,0,0,1,3.22.59,9.67,9.67,0,0,1,1.09.5,7.19,7.19,0,0,0,11.13,9.09,10.09,10.09,0,0,1,.77.83A7.32,7.32,0,0,1,39.34,32.93Z" transform="translate(0 0)"/>
      <line id="Line_77" data-name="Line 77" class="cls-2" x1="31.48" y1="7" x2="31.48" y2="10.33"/>
      <line id="Line_78" data-name="Line 78" class="cls-2" x1="20.51" y1="11.16" x2="23.07" y2="13.51"/>
      <line id="Line_79" data-name="Line 79" class="cls-2" x1="41.16" y1="28.45" x2="43.74" y2="30.8"/>
      <line id="Line_80" data-name="Line 80" class="cls-2" x1="43.36" y1="21.2" x2="47" y2="21.2"/>
      <line id="Line_81" data-name="Line 81" class="cls-2" x1="39.88" y1="13.51" x2="42.46" y2="11.16"/>
    </g>
  </g>
</svg>
