<svg id="Layer_1" data-name="Layer 1" xmlns="http://www.w3.org/2000/svg" width="48" height="48" viewBox="0 0 48 48">
  <defs>
    <style>
      .cls-1 {
        fill: #ffd2d2;
        fill-opacity: 0;
      }

      .cls-2 {
        fill: none;
        stroke: #fff;
        stroke-linecap: round;
        stroke-linejoin: round;
        stroke-width: 2px;
      }
    </style>
  </defs>
  <g id="ic_weather_22" data-name="ic weather 22">
    <rect id="Rectangle_7" data-name="Rectangle 7" class="cls-1" width="48" height="48"/>
    <g id="Group_38" data-name="Group 38">
      <path id="Path_160" data-name="Path 160" class="cls-2" d="M17.64,30.34l-4.14,6.2h4.22l-4.22,6.3" transform="translate(0 0)"/>
      <line id="Line_234" data-name="Line 234" class="cls-2" x1="32.34" y1="30.33" x2="25.94" y2="41.14"/>
      <line id="Line_235" data-name="Line 235" class="cls-2" x1="25.19" y1="33.22" x2="19.62" y2="42.51"/>
      <path id="Path_161" data-name="Path 161" class="cls-2" d="M43.73,22.19c0,4.45-4,8.07-8.8,8.07H12.8a8.8,8.8,0,0,1-8.73-7.58A8.46,8.46,0,0,1,4,21.45a8.79,8.79,0,0,1,8.8-8.71,8.62,8.62,0,0,1,3.61.78C16.72,9.32,20.55,6,25.2,6a9.44,9.44,0,0,1,3.33.61A8.08,8.08,0,0,1,34,14.07v.1a6.91,6.91,0,0,1,.91,0,9.28,9.28,0,0,1,5.48,1.76A8.13,8.13,0,0,1,42,17.44a7.62,7.62,0,0,1,1.41,2.65,7.49,7.49,0,0,1,.33,2.1Z" transform="translate(0 0)"/>
    </g>
  </g>
</svg>
