<svg id="Layer_1" data-name="Layer 1" xmlns="http://www.w3.org/2000/svg" width="48" height="48" viewBox="0 0 48 48">
  <defs>
    <style>
      .cls-1 {
        fill: #ffd2d2;
        fill-opacity: 0;
      }

      .cls-2 {
        fill: none;
        stroke: #fff;
        stroke-linecap: round;
        stroke-linejoin: round;
        stroke-width: 2px;
      }
    </style>
  </defs>
  <g id="ic_weather_23" data-name="ic weather 23">
    <rect id="Rectangle_7" data-name="Rectangle 7" class="cls-1" width="48" height="48"/>
    <g id="Group_39" data-name="Group 39">
      <path id="Path_154" data-name="Path 154" class="cls-2" d="M39.15,26.8c0,4.27-3.84,7.75-8.45,7.75H9.46a8.45,8.45,0,0,1-8.38-7.28A7.28,7.28,0,0,1,1,26.13a8.44,8.44,0,0,1,8.46-8.41,8.29,8.29,0,0,1,3.47.74c.3-4,4-7.21,8.44-7.21a8.76,8.76,0,0,1,3.2.58A7.77,7.77,0,0,1,29.82,19v.1a6.46,6.46,0,0,1,.88,0A8.88,8.88,0,0,1,36,20.78a7.79,7.79,0,0,1,1.53,1.45,7.33,7.33,0,0,1,1.67,4.57Z" transform="translate(0 0)"/>
      <path id="Path_155" data-name="Path 155" class="cls-2" d="M39,15.15a6.77,6.77,0,0,1-3,5.58,8.93,8.93,0,0,0-5.26-1.68c-.29,0-.59,0-.88,0V19a7.76,7.76,0,0,0-5.25-7.16,7.79,7.79,0,0,1,6.72-3.71C35.56,8.12,39,11.27,39,15.15Z" transform="translate(0 0)"/>
      <line id="Line_218" data-name="Line 218" class="cls-2" x1="31.33" y1="1" x2="31.33" y2="4.31"/>
      <line id="Line_219" data-name="Line 219" class="cls-2" x1="20.41" y1="5.15" x2="22.97" y2="7.49"/>
      <line id="Line_220" data-name="Line 220" class="cls-2" x1="40.97" y1="22.35" x2="43.53" y2="24.69"/>
      <line id="Line_221" data-name="Line 221" class="cls-2" x1="43.16" y1="15.15" x2="46.78" y2="15.15"/>
      <line id="Line_222" data-name="Line 222" class="cls-2" x1="39.69" y1="7.49" x2="42.26" y2="5.15"/>
      <path id="Path_156" data-name="Path 156" class="cls-2" d="M13.81,35l-4,6H13.9L9.84,47" transform="translate(0 0)"/>
      <line id="Line_223" data-name="Line 223" class="cls-2" x1="27.93" y1="34.99" x2="21.79" y2="45.38"/>
      <line id="Line_224" data-name="Line 224" class="cls-2" x1="21.07" y1="37.77" x2="15.72" y2="46.69"/>
    </g>
  </g>
</svg>
