<svg id="Layer_1" data-name="Layer 1" xmlns="http://www.w3.org/2000/svg" width="48" height="48" viewBox="0 0 48 48">
  <defs>
    <style>
      .cls-1 {
        fill: #ffd2d2;
        fill-opacity: 0;
      }

      .cls-2 {
        fill: none;
        stroke: #fff;
        stroke-linecap: round;
        stroke-linejoin: round;
        stroke-width: 2px;
      }
    </style>
  </defs>
  <g id="ic_weather_24" data-name="ic weather 24">
    <rect id="Rectangle_7" data-name="Rectangle 7" class="cls-1" width="48" height="48"/>
    <g id="Group_40" data-name="Group 40">
      <path id="Path_162" data-name="Path 162" class="cls-2" d="M46.69,17.27A12.1,12.1,0,0,1,39,24.21a6.94,6.94,0,0,0-1.33-2.5,7.82,7.82,0,0,0-1.5-1.43A8.78,8.78,0,0,0,31,18.62c-.29,0-.57,0-.86,0v-.09a7.63,7.63,0,0,0-5.17-7,7.93,7.93,0,0,0-1.42-.41A12,12,0,0,1,32.58,1,12,12,0,0,0,46.69,17.27Z" transform="translate(0 0)"/>
      <path id="Path_163" data-name="Path 163" class="cls-2" d="M14.9,33.94,11,40.41h4L11,47" transform="translate(0 0)"/>
      <line id="Line_236" data-name="Line 236" class="cls-2" x1="28.78" y1="33.92" x2="22.74" y2="45.24"/>
      <line id="Line_237" data-name="Line 237" class="cls-2" x1="22.04" y1="36.95" x2="16.78" y2="46.67"/>
      <path id="Path_164" data-name="Path 164" class="cls-2" d="M39.53,26.24c0,4.2-3.77,7.61-8.3,7.61H10.35A8.31,8.31,0,0,1,2.11,26.7,8.93,8.93,0,0,1,2,25.54a8.3,8.3,0,0,1,8.32-8.27,8.16,8.16,0,0,1,3.4.74c.3-4,3.91-7.1,8.3-7.1a8.91,8.91,0,0,1,3.15.57,7.63,7.63,0,0,1,5.17,7v.1a6.17,6.17,0,0,1,.86,0,8.75,8.75,0,0,1,5.17,1.66,7.48,7.48,0,0,1,1.5,1.42,7.27,7.27,0,0,1,1.33,2.5A6.75,6.75,0,0,1,39.53,26.24Z" transform="translate(0 0)"/>
    </g>
  </g>
</svg>
