<svg id="Layer_1" data-name="Layer 1" xmlns="http://www.w3.org/2000/svg" width="48" height="48" viewBox="0 0 48 48">
  <defs>
    <style>
      .cls-1 {
        fill: #ffd2d2;
        fill-opacity: 0;
      }

      .cls-2 {
        fill: none;
        stroke: #fff;
        stroke-linecap: round;
        stroke-linejoin: round;
        stroke-width: 2px;
      }
    </style>
  </defs>
  <g id="ic_weather_26" data-name="ic weather 26">
    <rect id="Rectangle_7" data-name="Rectangle 7" class="cls-1" width="48" height="48"/>
    <g id="Group_42" data-name="Group 42">
      <path id="Path_176" data-name="Path 176" class="cls-2" d="M39.17,26.81c0,4.27-3.84,7.75-8.45,7.75H9.46a8.44,8.44,0,0,1-8.38-7.28A7.28,7.28,0,0,1,1,26.14a8.44,8.44,0,0,1,8.46-8.4,8.14,8.14,0,0,1,3.47.74c.3-4,4-7.22,8.45-7.22a9,9,0,0,1,3.2.59A7.76,7.76,0,0,1,29.83,19v.1a6.46,6.46,0,0,1,.88,0A8.81,8.81,0,0,1,36,20.8a7.79,7.79,0,0,1,1.53,1.45A7.29,7.29,0,0,1,39.17,26.81Z" transform="translate(0 0)"/>
      <path id="Path_177" data-name="Path 177" class="cls-2" d="M39,15.15a6.82,6.82,0,0,1-3,5.59,9,9,0,0,0-5.26-1.68h-.88V19a7.78,7.78,0,0,0-5.25-7.17,7.75,7.75,0,0,1,6.72-3.7C35.58,8.12,39,11.27,39,15.15Z" transform="translate(0 0)"/>
      <line id="Line_273" data-name="Line 273" class="cls-2" x1="31.34" y1="1" x2="31.34" y2="4.32"/>
      <line id="Line_274" data-name="Line 274" class="cls-2" x1="20.41" y1="5.15" x2="22.97" y2="7.49"/>
      <line id="Line_275" data-name="Line 275" class="cls-2" x1="40.99" y1="22.36" x2="43.54" y2="24.7"/>
      <line id="Line_276" data-name="Line 276" class="cls-2" x1="43.17" y1="15.15" x2="46.79" y2="15.15"/>
      <line id="Line_277" data-name="Line 277" class="cls-2" x1="39.71" y1="7.49" x2="42.26" y2="5.15"/>
      <line id="Line_278" data-name="Line 278" class="cls-2" x1="21.7" y1="37.95" x2="21.7" y2="47"/>
      <line id="Line_279" data-name="Line 279" class="cls-2" x1="26.2" y1="35.29" x2="26.2" y2="46.12"/>
      <line id="Line_280" data-name="Line 280" class="cls-2" x1="17.19" y1="35.29" x2="17.19" y2="46.12"/>
    </g>
  </g>
</svg>
