<svg id="Layer_1" data-name="Layer 1" xmlns="http://www.w3.org/2000/svg" width="48" height="48" viewBox="0 0 48 48">
  <defs>
    <style>
      .cls-1 {
        fill: #ffd2d2;
        fill-opacity: 0;
      }

      .cls-2 {
        fill: none;
        stroke: #fff;
        stroke-linecap: round;
        stroke-linejoin: round;
        stroke-width: 2px;
      }
    </style>
  </defs>
  <g id="ic_weather_27" data-name="ic weather 27">
    <rect id="Rectangle_7" data-name="Rectangle 7" class="cls-1" width="48" height="48"/>
    <g id="Group_43" data-name="Group 43">
      <path id="Path_174" data-name="Path 174" class="cls-2" d="M46.92,17.33a12.09,12.09,0,0,1-7.64,6.93A7.27,7.27,0,0,0,38,21.76a7.48,7.48,0,0,0-1.5-1.42,8.71,8.71,0,0,0-5.17-1.66,6,6,0,0,0-.85,0v-.1a7.64,7.64,0,0,0-5.17-7,8.68,8.68,0,0,0-1.43-.41A12,12,0,0,1,32.82,1,12.16,12.16,0,0,0,46.91,17.33Z" transform="translate(0 0)"/>
      <path id="Path_175" data-name="Path 175" class="cls-2" d="M39.46,26.46c0,4.2-3.77,7.6-8.3,7.6H10.31a8.25,8.25,0,1,1,0-16.5,8.14,8.14,0,0,1,3.4.72c.29-4,3.9-7.08,8.29-7.08a8.69,8.69,0,0,1,3.14.58,7.61,7.61,0,0,1,5.15,7v.09h.86a8.79,8.79,0,0,1,5.17,1.65A7.82,7.82,0,0,1,37.82,22a7.17,7.17,0,0,1,1.64,4.48Z" transform="translate(0 0)"/>
      <line id="Line_270" data-name="Line 270" class="cls-2" x1="20.28" y1="38.12" x2="20.28" y2="47"/>
      <line id="Line_271" data-name="Line 271" class="cls-2" x1="24.68" y1="35.51" x2="24.68" y2="46.13"/>
      <line id="Line_272" data-name="Line 272" class="cls-2" x1="15.84" y1="35.51" x2="15.84" y2="46.13"/>
    </g>
  </g>
</svg>
