<svg id="Layer_1" data-name="Layer 1" xmlns="http://www.w3.org/2000/svg" width="48" height="48" viewBox="0 0 48 48">
  <defs>
    <style>
      .cls-1 {
        fill: #ffd2d2;
        fill-opacity: 0;
      }

      .cls-2 {
        fill: none;
        stroke: #fff;
        stroke-linecap: round;
        stroke-linejoin: round;
        stroke-width: 2px;
      }
    </style>
  </defs>
  <g id="ic_weather_29" data-name="ic weather 29">
    <rect id="Rectangle_7" data-name="Rectangle 7" class="cls-1" width="48" height="48"/>
    <g id="Group_45" data-name="Group 45">
      <path id="Path_157" data-name="Path 157" class="cls-2" d="M39.16,26.79c0,4.28-3.84,7.75-8.45,7.75H9.46a8.44,8.44,0,0,1-8.38-7.27A7.28,7.28,0,0,1,1,26.13a8.47,8.47,0,0,1,11.93-7.66c.3-4,4-7.21,8.44-7.21a9,9,0,0,1,3.2.59A7.76,7.76,0,0,1,29.82,19v.1a6.46,6.46,0,0,1,.88,0A9,9,0,0,1,36,20.79a7.79,7.79,0,0,1,1.53,1.45,7.35,7.35,0,0,1,1.68,4.56Z" transform="translate(0 0)"/>
      <path id="Path_158" data-name="Path 158" class="cls-2" d="M39,15.15a6.77,6.77,0,0,1-3,5.58,8.93,8.93,0,0,0-5.26-1.68c-.29,0-.59,0-.88,0V19a7.76,7.76,0,0,0-5.25-7.16,7.79,7.79,0,0,1,6.72-3.71C35.56,8.13,39,11.27,39,15.15Z" transform="translate(0 0)"/>
      <line id="Line_225" data-name="Line 225" class="cls-2" x1="31.34" y1="1" x2="31.34" y2="4.31"/>
      <line id="Line_226" data-name="Line 226" class="cls-2" x1="20.41" y1="5.14" x2="22.97" y2="7.48"/>
      <line id="Line_227" data-name="Line 227" class="cls-2" x1="40.98" y1="22.35" x2="43.53" y2="24.69"/>
      <line id="Line_228" data-name="Line 228" class="cls-2" x1="43.16" y1="15.15" x2="46.78" y2="15.15"/>
      <line id="Line_229" data-name="Line 229" class="cls-2" x1="39.69" y1="7.48" x2="42.26" y2="5.14"/>
      <path id="Path_159" data-name="Path 159" class="cls-2" d="M13.82,35l-4,6H13.9L9.85,47" transform="translate(0 0)"/>
      <line id="Line_230" data-name="Line 230" class="cls-2" x1="27.94" y1="34.99" x2="26.23" y2="37.88"/>
      <line id="Line_231" data-name="Line 231" class="cls-2" x1="23.5" y1="42.48" x2="21.79" y2="45.38"/>
      <line id="Line_232" data-name="Line 232" class="cls-2" x1="21.07" y1="37.76" x2="19.34" y2="40.65"/>
      <line id="Line_233" data-name="Line 233" class="cls-2" x1="17.45" y1="43.8" x2="15.72" y2="46.68"/>
    </g>
  </g>
</svg>
