<svg id="Layer_1" data-name="Layer 1" xmlns="http://www.w3.org/2000/svg" width="48" height="48" viewBox="0 0 48 48">
  <defs>
    <style>
      .cls-1 {
        fill: #ffd2d2;
        fill-opacity: 0;
      }

      .cls-2 {
        fill: none;
        stroke: #fff;
        stroke-linecap: round;
        stroke-linejoin: round;
        stroke-width: 2px;
      }
    </style>
  </defs>
  <g id="ic_weather_3" data-name="ic weather 3">
    <rect id="Rectangle_7" data-name="Rectangle 7" class="cls-1" width="48" height="48"/>
    <g id="Group_19" data-name="Group 19">
      <path id="Path_143" data-name="Path 143" class="cls-2" d="M47,23.77a12.42,12.42,0,0,1-7.84,7.11,7.47,7.47,0,0,0-1.37-2.56,7.35,7.35,0,0,0-1.54-1.46,8.93,8.93,0,0,0-5.3-1.7,6.46,6.46,0,0,0-.88,0v-.1a7.85,7.85,0,0,0-5.31-7.23,8.11,8.11,0,0,0-1.46-.41A12.34,12.34,0,0,1,32.53,7,12.5,12.5,0,0,0,47,23.77Z" transform="translate(0 0)"/>
      <path id="Path_144" data-name="Path 144" class="cls-2" d="M39.5,33c0,4.31-3.88,7.81-8.52,7.81H9.53a8.52,8.52,0,0,1-8.45-7.34A7.28,7.28,0,0,1,1,32.3a8.51,8.51,0,0,1,8.53-8.48,8.28,8.28,0,0,1,3.5.75c.3-4.06,4-7.28,8.51-7.28a9.14,9.14,0,0,1,3.23.59,7.84,7.84,0,0,1,5.3,7.22v.11a6.46,6.46,0,0,1,.88,0,9,9,0,0,1,5.31,1.7,7.61,7.61,0,0,1,1.54,1.46,7.35,7.35,0,0,1,1.36,2.56A7.45,7.45,0,0,1,39.5,33Z" transform="translate(0 0)"/>
    </g>
  </g>
</svg>
