<svg id="Layer_1" data-name="Layer 1" xmlns="http://www.w3.org/2000/svg" width="48" height="48" viewBox="0 0 48 48">
  <defs>
    <style>
      .cls-1 {
        fill: #ffd2d2;
        fill-opacity: 0;
      }

      .cls-2 {
        fill: none;
        stroke: #fff;
        stroke-linecap: round;
        stroke-linejoin: round;
        stroke-width: 2px;
      }
    </style>
  </defs>
  <g id="ic_weather_30" data-name="ic weather 30">
    <rect id="Rectangle_7" data-name="Rectangle 7" class="cls-1" width="48" height="48"/>
    <g id="Group_46" data-name="Group 46">
      <path id="Path_151" data-name="Path 151" class="cls-2" d="M47,18.69a12.42,12.42,0,0,1-7.84,7.11,7.87,7.87,0,0,0-2.91-4,8.94,8.94,0,0,0-5.31-1.7,6.46,6.46,0,0,0-.88,0h0a7.84,7.84,0,0,0-5.3-7.23,8.45,8.45,0,0,0-1.47-.41A12.35,12.35,0,0,1,32.52,2,12.3,12.3,0,0,0,47,18.69Z" transform="translate(0 0)"/>
      <path id="Path_152" data-name="Path 152" class="cls-2" d="M12.84,35.89l-3,5h4.08l-4.08,6.1" transform="translate(0 0)"/>
      <line id="Line_214" data-name="Line 214" class="cls-2" x1="27.07" y1="35.65" x2="25.68" y2="38.13"/>
      <line id="Line_215" data-name="Line 215" class="cls-2" x1="23.12" y1="42.39" x2="21.39" y2="45.31"/>
      <line id="Line_216" data-name="Line 216" class="cls-2" x1="20.76" y1="37.64" x2="19.02" y2="40.54"/>
      <line id="Line_217" data-name="Line 217" class="cls-2" x1="17.26" y1="43.73" x2="15.51" y2="46.63"/>
      <path id="Path_153" data-name="Path 153" class="cls-2" d="M39.47,27.91c0,4.31-3.87,7.82-8.52,7.82H9.53a8.52,8.52,0,0,1-8.45-7.34A7.28,7.28,0,0,1,1,27.25a8.51,8.51,0,0,1,12-7.73c.3-4.07,4-7.29,8.51-7.29a9.34,9.34,0,0,1,3.23.6,7.83,7.83,0,0,1,5.3,7.23v.1a6.46,6.46,0,0,1,.88,0,8.94,8.94,0,0,1,5.31,1.7,7.61,7.61,0,0,1,1.54,1.46,7.38,7.38,0,0,1,1.37,2.56A7,7,0,0,1,39.47,27.91Z" transform="translate(0 0)"/>
    </g>
  </g>
</svg>
