<svg id="Layer_1" data-name="Layer 1" xmlns="http://www.w3.org/2000/svg" width="48" height="48" viewBox="0 0 48 48">
  <defs>
    <style>
      .cls-1 {
        fill: #ffd2d2;
        fill-opacity: 0;
      }

      .cls-2 {
        fill: none;
        stroke: #fff;
        stroke-linecap: round;
        stroke-linejoin: round;
        stroke-width: 2px;
      }
    </style>
  </defs>
  <g id="ic_weather_43" data-name="ic weather 43">
    <rect id="Rectangle_7" data-name="Rectangle 7" class="cls-1" width="48" height="48"/>
    <g id="Group_57" data-name="Group 57">
      <path id="Path_186" data-name="Path 186" class="cls-2" d="M43.74,21.18c0,4.45-4,8.07-8.8,8.07H12.81a8.8,8.8,0,0,1-8.73-7.58A7.8,7.8,0,0,1,4,20.49a8.79,8.79,0,0,1,8.81-8.75,8.64,8.64,0,0,1,3.61.77C16.73,8.31,20.56,5,25.21,5a9.22,9.22,0,0,1,3.33.61A8.08,8.08,0,0,1,34,13.07v.1a6.91,6.91,0,0,1,.91,0,9.29,9.29,0,0,1,5.48,1.75A8.13,8.13,0,0,1,42,16.43,7.57,7.57,0,0,1,43.74,21.18Z" transform="translate(0 0)"/>
      <line id="Line_289" data-name="Line 289" class="cls-2" x1="29.15" y1="30.63" x2="30.81" y2="40.02"/>
      <path id="Path_187" data-name="Path 187" class="cls-2" d="M28.31,32l1.24,1,.85-1.49" transform="translate(0 0)"/>
      <path id="Path_188" data-name="Path 188" class="cls-2" d="M29.58,39.19l.8-1.46,1.3,1.06" transform="translate(0 0)"/>
      <line id="Line_290" data-name="Line 290" class="cls-2" x1="25.1" y1="36.32" x2="34.86" y2="34.33"/>
      <path id="Path_189" data-name="Path 189" class="cls-2" d="M26.49,37.08l1.13-1.24-1.51-.77" transform="translate(0 0)"/>
      <path id="Path_190" data-name="Path 190" class="cls-2" d="M34,35.56l-1.47-.72,1.14-1.3" transform="translate(0 0)"/>
      <line id="Line_291" data-name="Line 291" class="cls-2" x1="17.03" y1="33.84" x2="14.33" y2="42.99"/>
      <path id="Path_191" data-name="Path 191" class="cls-2" d="M15.66,34.71l.64,1.48,1.43-1" transform="translate(0 0)"/>
      <path id="Path_192" data-name="Path 192" class="cls-2" d="M13.6,41.7l1.36-1,.69,1.52" transform="translate(0 0)"/>
      <line id="Line_292" data-name="Line 292" class="cls-2" x1="10.86" y1="37.13" x2="20.49" y2="39.7"/>
      <path id="Path_193" data-name="Path 193" class="cls-2" d="M11.77,38.44l1.56-.62-1-1.35" transform="translate(0 0)"/>
      <path id="Path_194" data-name="Path 194" class="cls-2" d="M19.12,40.4l-1-1.3,1.6-.66" transform="translate(0 0)"/>
    </g>
  </g>
</svg>
