<svg id="Layer_1" data-name="Layer 1" xmlns="http://www.w3.org/2000/svg" width="48" height="48" viewBox="0 0 48 48">
  <defs>
    <style>
      .cls-1 {
        fill: #ffd2d2;
        fill-opacity: 0;
      }

      .cls-2 {
        fill: none;
        stroke: #fff;
        stroke-linecap: round;
        stroke-linejoin: round;
        stroke-width: 2px;
      }
    </style>
  </defs>
  <g id="ic_weather_45" data-name="ic weather 45">
    <rect id="Rectangle_7" data-name="Rectangle 7" class="cls-1" width="48" height="48"/>
    <g id="Group_59" data-name="Group 59">
      <path id="Path_205" data-name="Path 205" class="cls-2" d="M46.81,17.52a12.28,12.28,0,0,1-7.75,7A7.11,7.11,0,0,0,37.71,22a7.74,7.74,0,0,0-1.52-1.45A8.87,8.87,0,0,0,31,18.89a6.31,6.31,0,0,0-.87,0v-.1a7.75,7.75,0,0,0-5.27-7.09,8,8,0,0,0-1.45-.41A12.19,12.19,0,0,1,32.46,1,12.26,12.26,0,0,0,46.81,17.52Z" transform="translate(0 0)"/>
      <path id="Path_206" data-name="Path 206" class="cls-2" d="M39,26.89c0,4.26-3.82,7.72-8.42,7.72H9.43a8.41,8.41,0,0,1-8.35-7.25A7.08,7.08,0,0,1,1,26.23,8.41,8.41,0,0,1,12.88,18.6c.3-4,4-7.19,8.41-7.19a9.09,9.09,0,0,1,3.18.58,7.71,7.71,0,0,1,5.24,7.13v.1h.87a9,9,0,0,1,5.25,1.69,8,8,0,0,1,1.52,1.44,7.41,7.41,0,0,1,1.35,2.54,6.85,6.85,0,0,1,.3,2Z" transform="translate(0 0)"/>
      <line id="Line_302" data-name="Line 302" class="cls-2" x1="26.01" y1="35.17" x2="27.6" y2="44.16"/>
      <path id="Path_207" data-name="Path 207" class="cls-2" d="M25.21,36.5l1.19,1,.81-1.42" transform="translate(0 0)"/>
      <path id="Path_208" data-name="Path 208" class="cls-2" d="M26.42,43.36,27.19,42l1.24,1" transform="translate(0 0)"/>
      <line id="Line_303" data-name="Line 303" class="cls-2" x1="22.14" y1="40.61" x2="31.48" y2="38.71"/>
      <path id="Path_209" data-name="Path 209" class="cls-2" d="M23.48,41.34l1.07-1.19-1.44-.73" transform="translate(0 0)"/>
      <path id="Path_210" data-name="Path 210" class="cls-2" d="M30.61,39.88,29.2,39.2,30.29,38" transform="translate(0 0)"/>
      <line id="Line_304" data-name="Line 304" class="cls-2" x1="14.42" y1="38.25" x2="11.84" y2="47"/>
      <path id="Path_211" data-name="Path 211" class="cls-2" d="M13.11,39.07l.61,1.42,1.37-.91" transform="translate(0 0)"/>
      <path id="Path_212" data-name="Path 212" class="cls-2" d="M11.14,45.76l1.3-.9.66,1.45" transform="translate(0 0)"/>
      <line id="Line_305" data-name="Line 305" class="cls-2" x1="8.53" y1="41.4" x2="17.73" y2="43.86"/>
      <path id="Path_213" data-name="Path 213" class="cls-2" d="M9.4,42.64l1.49-.59-1-1.3" transform="translate(0 0)"/>
      <path id="Path_214" data-name="Path 214" class="cls-2" d="M16.43,44.51l-.95-1.23L17,42.65" transform="translate(0 0)"/>
    </g>
  </g>
</svg>
