<svg id="Layer_1" data-name="Layer 1" xmlns="http://www.w3.org/2000/svg" width="48" height="48" viewBox="0 0 48 48">
  <defs>
    <style>
      .cls-1 {
        fill: #ffd2d2;
        fill-opacity: 0;
      }

      .cls-2 {
        fill: none;
        stroke: #fff;
        stroke-linecap: round;
        stroke-linejoin: round;
        stroke-width: 2px;
      }
    </style>
  </defs>
  <g id="ic_weather_46" data-name="ic weather 46">
    <rect id="Rectangle_7" data-name="Rectangle 7" class="cls-1" width="48" height="48"/>
    <g id="Group_60" data-name="Group 60">
      <path id="Path_41" data-name="Path 41" class="cls-2" d="M43.73,22.18c0,4.45-4,8.07-8.8,8.07H12.81a8.8,8.8,0,0,1-8.73-7.58A7.8,7.8,0,0,1,4,21.49a8.79,8.79,0,0,1,8.81-8.75,8.64,8.64,0,0,1,3.61.77C16.73,9.31,20.56,6,25.21,6a9.22,9.22,0,0,1,3.33.61A8.08,8.08,0,0,1,34,14.07v.1a6.91,6.91,0,0,1,.91,0,9.29,9.29,0,0,1,5.48,1.75A8.13,8.13,0,0,1,42,17.43a7.56,7.56,0,0,1,1.74,4.75Z" transform="translate(0 0)"/>
      <path id="Path_42" data-name="Path 42" class="cls-2" d="M16.33,30.19s9.47.13,14.56,0c4.61-.12,5.79-4.43,4.61-6.36s-5.41-1.06-4.18,2.37" transform="translate(0 0)"/>
      <path id="Path_43" data-name="Path 43" class="cls-2" d="M18.77,37H30.89c2.92,0,4.73,1.7,4.31,3.41" transform="translate(0 0)"/>
      <path id="Path_44" data-name="Path 44" class="cls-2" d="M15.81,33.88s13.62-.1,20,0c3.42,0,4.87,2,4.87,3.77a4.63,4.63,0,0,1-2.62,4.17" transform="translate(0 0)"/>
    </g>
  </g>
</svg>
