<svg id="Layer_1" data-name="Layer 1" xmlns="http://www.w3.org/2000/svg" width="48" height="48" viewBox="0 0 48 48">
  <defs>
    <style>
      .cls-1 {
        fill: #ffd2d2;
        fill-opacity: 0;
      }

      .cls-2 {
        fill: none;
        stroke: #fff;
        stroke-linecap: round;
        stroke-linejoin: round;
        stroke-width: 2px;
      }
    </style>
  </defs>
  <g id="ic_weather_47" data-name="ic weather 47">
    <rect id="Rectangle_7" data-name="Rectangle 7" class="cls-1" width="48" height="48"/>
    <g id="Group_61" data-name="Group 61">
      <path id="Path_45" data-name="Path 45" class="cls-2" d="M39.18,16.21a6.81,6.81,0,0,1-3,5.62,8.93,8.93,0,0,0-5.28-1.69c-.3,0-.59,0-.88,0V20a7.82,7.82,0,0,0-5.28-7.2,7.81,7.81,0,0,1,6.76-3.72C35.73,9.15,39.18,12.31,39.18,16.21Z" transform="translate(0 0)"/>
      <line id="Line_87" data-name="Line 87" class="cls-2" x1="31.47" y1="2" x2="31.47" y2="5.33"/>
      <line id="Line_88" data-name="Line 88" class="cls-2" x1="20.5" y1="6.16" x2="23.07" y2="8.51"/>
      <line id="Line_89" data-name="Line 89" class="cls-2" x1="41.16" y1="23.45" x2="43.74" y2="25.81"/>
      <line id="Line_90" data-name="Line 90" class="cls-2" x1="43.36" y1="16.21" x2="47" y2="16.21"/>
      <line id="Line_91" data-name="Line 91" class="cls-2" x1="39.88" y1="8.51" x2="42.46" y2="6.16"/>
      <path id="Path_46" data-name="Path 46" class="cls-2" d="M39.34,27.72c0,4.3-3.86,7.79-8.49,7.79H9.5A8.48,8.48,0,0,1,1.08,28.2,7.28,7.28,0,0,1,1,27.06a8.48,8.48,0,0,1,8.5-8.45,8.35,8.35,0,0,1,3.48.75c.3-4.06,4-7.25,8.49-7.25a9.08,9.08,0,0,1,3.21.59A7.82,7.82,0,0,1,30,19.9V20a6.31,6.31,0,0,1,.87,0,9,9,0,0,1,5.29,1.69,7.61,7.61,0,0,1,1.54,1.46A7.32,7.32,0,0,1,39.34,27.72Z" transform="translate(0 0)"/>
      <path id="Path_47" data-name="Path 47" class="cls-2" d="M12.9,35.45s9.14.13,14.05,0c4.45-.11,5.59-4.27,4.45-6.13s-5.22-1-4,2.29" transform="translate(0 0)"/>
      <path id="Path_48" data-name="Path 48" class="cls-2" d="M15.25,42H27c2.82,0,4.57,1.64,4.16,3.29" transform="translate(0 0)"/>
      <path id="Path_49" data-name="Path 49" class="cls-2" d="M12.4,39s13.14-.1,19.3,0c3.3,0,4.7,1.93,4.7,3.63a4.48,4.48,0,0,1-2.53,4" transform="translate(0 0)"/>
    </g>
  </g>
</svg>
