<svg id="Layer_1" data-name="Layer 1" xmlns="http://www.w3.org/2000/svg" width="48" height="48" viewBox="0 0 48 48">
  <defs>
    <style>
      .cls-1 {
        fill: #ffd2d2;
        fill-opacity: 0;
      }

      .cls-2 {
        fill: none;
        stroke: #fff;
        stroke-linecap: round;
        stroke-linejoin: round;
        stroke-width: 2px;
      }
    </style>
  </defs>
  <g id="ic_weather_48" data-name="ic weather 48">
    <rect id="Rectangle_7" data-name="Rectangle 7" class="cls-1" width="48" height="48"/>
    <g id="Group_62" data-name="Group 62">
      <path id="Path_50" data-name="Path 50" class="cls-2" d="M46.64,18.64a12.31,12.31,0,0,1-7.78,7.07,7.45,7.45,0,0,0-1.35-2.55A8.08,8.08,0,0,0,36,21.71,8.92,8.92,0,0,0,30.71,20a6.31,6.31,0,0,0-.87,0v-.1a7.77,7.77,0,0,0-5.27-7.17,8.24,8.24,0,0,0-1.45-.41A12.24,12.24,0,0,1,32.28,2a12.27,12.27,0,0,0,6.56,16.07,12.35,12.35,0,0,0,7.8.57Z" transform="translate(0 0)"/>
      <path id="Path_51" data-name="Path 51" class="cls-2" d="M39.19,27.74c0,4.28-3.85,7.76-8.46,7.76H9.47a8.44,8.44,0,0,1-8.39-7.29A7.08,7.08,0,0,1,1,27.08a8.47,8.47,0,0,1,11.93-7.67c.3-4,4-7.22,8.45-7.22a8.94,8.94,0,0,1,3.2.59A7.77,7.77,0,0,1,29.84,20v.1a6.32,6.32,0,0,1,.87,0A9,9,0,0,1,36,21.73a7.79,7.79,0,0,1,1.53,1.45,7.34,7.34,0,0,1,1.68,4.57Z" transform="translate(0 0)"/>
      <path id="Path_52" data-name="Path 52" class="cls-2" d="M12.85,35.44s9.1.12,14,0c4.43-.12,5.56-4.26,4.43-6.11s-5.2-1-4,2.28" transform="translate(0 0)"/>
      <path id="Path_53" data-name="Path 53" class="cls-2" d="M15.2,41.93H26.85c2.81,0,4.55,1.63,4.15,3.27" transform="translate(0 0)"/>
      <path id="Path_54" data-name="Path 54" class="cls-2" d="M12.35,39s13.09-.1,19.22,0c3.28,0,4.68,1.92,4.68,3.62a4.45,4.45,0,0,1-2.52,4" transform="translate(0 0)"/>
    </g>
  </g>
</svg>
