<svg id="Layer_1" data-name="Layer 1" xmlns="http://www.w3.org/2000/svg" width="48" height="48" viewBox="0 0 48 48">
  <defs>
    <style>
      .cls-1 {
        fill: #ffd2d2;
        fill-opacity: 0;
      }

      .cls-2, .cls-3 {
        fill: none;
        stroke: #fff;
        stroke-linecap: round;
        stroke-linejoin: round;
        stroke-width: 2px;
      }

      .cls-3 {
        stroke-dasharray: 1 5;
      }
    </style>
  </defs>
  <g id="ic_weather_5" data-name="ic weather 5">
    <rect id="Rectangle_7" data-name="Rectangle 7" class="cls-1" width="48" height="48"/>
    <g id="Group_21" data-name="Group 21">
      <path id="Path_139" data-name="Path 139" class="cls-2" d="M39.35,27.92c0,4.3-3.87,7.79-8.5,7.79H9.5A8.48,8.48,0,0,1,1.08,28.4,7.28,7.28,0,0,1,1,27.26a8.48,8.48,0,0,1,8.5-8.45,8.35,8.35,0,0,1,3.48.75c.3-4.06,4-7.25,8.49-7.25a9,9,0,0,1,3.21.59A7.8,7.8,0,0,1,30,20.1v.1a6.46,6.46,0,0,1,.88,0,9,9,0,0,1,5.29,1.69,7.79,7.79,0,0,1,1.53,1.45,7.32,7.32,0,0,1,1.68,4.59Z" transform="translate(0 0)"/>
      <path id="Path_140" data-name="Path 140" class="cls-2" d="M39.21,16.22a6.84,6.84,0,0,1-3.05,5.61,9,9,0,0,0-5.29-1.68,6.46,6.46,0,0,0-.88,0v-.1a7.78,7.78,0,0,0-5.27-7.2,7.79,7.79,0,0,1,6.75-3.73C35.73,9.16,39.21,12.33,39.21,16.22Z" transform="translate(0 0)"/>
      <line id="Line_194" data-name="Line 194" class="cls-2" x1="31.48" y1="2" x2="31.48" y2="5.34"/>
      <line id="Line_195" data-name="Line 195" class="cls-2" x1="20.5" y1="6.17" x2="23.07" y2="8.52"/>
      <line id="Line_196" data-name="Line 196" class="cls-2" x1="41.17" y1="23.46" x2="43.74" y2="25.82"/>
      <line id="Line_197" data-name="Line 197" class="cls-2" x1="43.36" y1="16.22" x2="47" y2="16.22"/>
      <line id="Line_198" data-name="Line 198" class="cls-2" x1="39.89" y1="8.52" x2="42.45" y2="6.17"/>
      <g id="Group_151" data-name="Group 151">
        <line id="Line_199" data-name="Line 199" class="cls-3" x1="20.17" y1="38.61" x2="20.17" y2="46.74"/>
        <line id="Line_200" data-name="Line 200" class="cls-3" x1="24.69" y1="36.68" x2="24.69" y2="44.81"/>
        <line id="Line_201" data-name="Line 201" class="cls-3" x1="15.63" y1="36.68" x2="15.63" y2="44.81"/>
      </g>
    </g>
  </g>
</svg>
