<svg id="Layer_1" data-name="Layer 1" xmlns="http://www.w3.org/2000/svg" width="48" height="48" viewBox="0 0 48 48">
  <defs>
    <style>
      .cls-1 {
        fill: #ffd2d2;
        fill-opacity: 0;
      }

      .cls-2 {
        fill: none;
        stroke: #fff;
        stroke-linecap: round;
        stroke-linejoin: round;
        stroke-width: 2px;
      }
    </style>
  </defs>
  <g id="ic_weather_52" data-name="ic weather 52">
    <rect id="Rectangle_7" data-name="Rectangle 7" class="cls-1" width="48" height="48"/>
    <g id="Group_155" data-name="Group 155">
      <line id="Line_92" data-name="Line 92" class="cls-2" x1="15.32" y1="30.83" x2="8.93" y2="41.48"/>
      <line id="Line_93" data-name="Line 93" class="cls-2" x1="19.91" y1="33.79" x2="14.31" y2="42.98"/>
      <path id="Path_55" data-name="Path 55" class="cls-2" d="M43.73,22.14c0,4.45-4,8.07-8.8,8.07H12.81a8.8,8.8,0,0,1-8.73-7.54A7.8,7.8,0,0,1,4,21.49a8.79,8.79,0,0,1,8.81-8.75,8.64,8.64,0,0,1,3.61.77C16.73,9.31,20.56,6,25.21,6a9.22,9.22,0,0,1,3.33.61A8.08,8.08,0,0,1,34,14.07v.1a6.91,6.91,0,0,1,.91,0,9.29,9.29,0,0,1,5.48,1.75A8.13,8.13,0,0,1,42,17.43,7.59,7.59,0,0,1,43.73,22.14Z" transform="translate(0 0)"/>
      <path id="Path_56" data-name="Path 56" class="cls-2" d="M16.33,30.15s9.47.13,14.56,0c4.61-.12,5.79-4.43,4.61-6.36s-5.41-1.06-4.18,2.37" transform="translate(0 0)"/>
      <path id="Path_57" data-name="Path 57" class="cls-2" d="M24.38,36.91h6.5c2.92,0,4.73,1.7,4.31,3.41" transform="translate(0 0)"/>
      <path id="Path_58" data-name="Path 58" class="cls-2" d="M23.8,33.83s7.62-.1,14,0c3.42.05,4.87,2,4.87,3.77a4.63,4.63,0,0,1-2.62,4.17" transform="translate(0 0)"/>
    </g>
  </g>
</svg>
