<svg id="Layer_1" data-name="Layer 1" xmlns="http://www.w3.org/2000/svg" width="48" height="48" viewBox="0 0 48 48">
  <defs>
    <style>
      .cls-1 {
        fill: #ffd2d2;
        fill-opacity: 0;
      }

      .cls-2 {
        fill: none;
        stroke: #fff;
        stroke-linecap: round;
        stroke-linejoin: round;
        stroke-width: 2px;
      }
    </style>
  </defs>
  <g id="ic_weather_53" data-name="ic weather 53">
    <rect id="Rectangle_7" data-name="Rectangle 7" class="cls-1" width="48" height="48"/>
    <g id="Group_66" data-name="Group 66">
      <path id="Path_64" data-name="Path 64" class="cls-2" d="M39.29,15a6.75,6.75,0,0,1-3,5.54,8.79,8.79,0,0,0-5.21-1.67h-.87v-.1a7.71,7.71,0,0,0-5.2-7.1A7.71,7.71,0,0,1,31.67,8C35.89,8.06,39.29,11.13,39.29,15Z" transform="translate(0 0)"/>
      <line id="Line_96" data-name="Line 96" class="cls-2" x1="31.69" y1="1" x2="31.69" y2="4.28"/>
      <line id="Line_97" data-name="Line 97" class="cls-2" x1="20.88" y1="5.1" x2="23.42" y2="7.42"/>
      <line id="Line_98" data-name="Line 98" class="cls-2" x1="41.25" y1="22.14" x2="43.78" y2="24.47"/>
      <line id="Line_99" data-name="Line 99" class="cls-2" x1="43.41" y1="15.01" x2="47" y2="15.01"/>
      <line id="Line_100" data-name="Line 100" class="cls-2" x1="39.98" y1="7.42" x2="42.52" y2="5.1"/>
      <line id="Line_101" data-name="Line 101" class="cls-2" x1="11.78" y1="34.44" x2="5.69" y2="44.57"/>
      <line id="Line_102" data-name="Line 102" class="cls-2" x1="16.13" y1="37.26" x2="10.81" y2="46"/>
      <path id="Path_65" data-name="Path 65" class="cls-2" d="M38.79,26.18c0,4.23-3.8,7.67-8.37,7.67h-21a8.33,8.33,0,1,1,0-16.65,8.15,8.15,0,0,1,3.44.73c.29-4,3.94-7.14,8.36-7.14a8.85,8.85,0,0,1,3.17.58,7.71,7.71,0,0,1,5.2,7.1v.1a6.17,6.17,0,0,1,.86,0,8.83,8.83,0,0,1,5.21,1.66,7.69,7.69,0,0,1,1.52,1.44,7.24,7.24,0,0,1,1.65,4.52Z" transform="translate(0 0)"/>
      <path id="Path_66" data-name="Path 66" class="cls-2" d="M12.73,33.8s9,.12,13.85,0c4.38-.12,5.5-4.22,4.38-6s-5.14-1-4,2.25" transform="translate(0 0)"/>
      <path id="Path_67" data-name="Path 67" class="cls-2" d="M20.39,40.23h6.19c2.77,0,4.5,1.61,4.1,3.24" transform="translate(0 0)"/>
      <path id="Path_68" data-name="Path 68" class="cls-2" d="M19.84,37.3s7.25-.1,13.32,0c3.25.05,4.63,1.9,4.63,3.58a4.38,4.38,0,0,1-2.49,4" transform="translate(0 0)"/>
    </g>
  </g>
</svg>
