<svg id="Layer_1" data-name="Layer 1" xmlns="http://www.w3.org/2000/svg" width="48" height="48" viewBox="0 0 48 48">
  <defs>
    <style>
      .cls-1 {
        fill: #ffd2d2;
        fill-opacity: 0;
      }

      .cls-2 {
        fill: none;
        stroke: #fff;
        stroke-linecap: round;
        stroke-linejoin: round;
        stroke-width: 2px;
      }
    </style>
  </defs>
  <g id="ic_weather_54" data-name="ic weather 54">
    <rect id="Rectangle_7" data-name="Rectangle 7" class="cls-1" width="48" height="48"/>
    <g id="Group_67" data-name="Group 67">
      <path id="Path_59" data-name="Path 59" class="cls-2" d="M47,17.74a12.4,12.4,0,0,1-7.83,7.11,7.35,7.35,0,0,0-1.36-2.56,8.19,8.19,0,0,0-1.54-1.46,9,9,0,0,0-5.3-1.7,6.46,6.46,0,0,0-.88,0V19a7.81,7.81,0,0,0-5.3-7.21,9,9,0,0,0-1.46-.42A12.32,12.32,0,0,1,32.54,1,12.49,12.49,0,0,0,47,17.75Z" transform="translate(0 0)"/>
      <line id="Line_94" data-name="Line 94" class="cls-2" x1="11.95" y1="35.12" x2="5.77" y2="45.41"/>
      <line id="Line_95" data-name="Line 95" class="cls-2" x1="16.39" y1="37.98" x2="10.98" y2="46.86"/>
      <path id="Path_60" data-name="Path 60" class="cls-2" d="M39.41,26.72c0,4.3-3.87,7.8-8.51,7.8H9.52a8.51,8.51,0,0,1-8.44-7.33A7.28,7.28,0,0,1,1,26.05a8.53,8.53,0,0,1,12-7.72c.3-4.06,4-7.26,8.5-7.26a9.09,9.09,0,0,1,3.22.59A7.82,7.82,0,0,1,30,18.88V19a6.46,6.46,0,0,1,.88,0,8.9,8.9,0,0,1,5.3,1.69,7.7,7.7,0,0,1,3.22,6Z" transform="translate(0 0)"/>
      <path id="Path_61" data-name="Path 61" class="cls-2" d="M12.92,34.46s9.16.13,14.08,0c4.45-.12,5.6-4.28,4.45-6.15s-5.23-1-4,2.29" transform="translate(0 0)"/>
      <path id="Path_62" data-name="Path 62" class="cls-2" d="M20.71,41H27c2.82,0,4.57,1.65,4.16,3.31" transform="translate(0 0)"/>
      <path id="Path_63" data-name="Path 63" class="cls-2" d="M20.15,38s7.37-.1,13.54,0c3.3,0,4.71,1.93,4.71,3.64a4.49,4.49,0,0,1-2.54,4" transform="translate(0 0)"/>
    </g>
  </g>
</svg>
