<svg id="Layer_1" data-name="Layer 1" xmlns="http://www.w3.org/2000/svg" width="48" height="48" viewBox="0 0 48 48">
  <defs>
    <style>
      .cls-1 {
        fill: #ffd2d2;
        fill-opacity: 0;
      }

      .cls-2, .cls-3, .cls-4 {
        fill: none;
        stroke: #fff;
        stroke-linecap: round;
        stroke-linejoin: round;
        stroke-width: 2px;
      }

      .cls-3 {
        stroke-dasharray: 1.02 5.08;
      }

      .cls-4 {
        stroke-dasharray: 0.88 4.4;
      }
    </style>
  </defs>
  <g id="ic_weather_56" data-name="ic weather 56">
    <rect id="Rectangle_7" data-name="Rectangle 7" class="cls-1" width="48" height="48"/>
    <g id="Group_69" data-name="Group 69">
      <path id="Path_120" data-name="Path 120" class="cls-2" d="M39,14.85a6.67,6.67,0,0,1-3,5.48,8.77,8.77,0,0,0-5.17-1.65H30v-.09a7.63,7.63,0,0,0-5.16-7,7.62,7.62,0,0,1,6.6-3.64C35.58,8,39,11.08,39,14.85Z" transform="translate(0 0)"/>
      <line id="Line_166" data-name="Line 166" class="cls-2" x1="31.42" y1="1" x2="31.42" y2="4.26"/>
      <line id="Line_167" data-name="Line 167" class="cls-2" x1="20.7" y1="5.07" x2="23.22" y2="7.37"/>
      <line id="Line_168" data-name="Line 168" class="cls-2" x1="40.89" y1="21.96" x2="43.4" y2="24.26"/>
      <line id="Line_169" data-name="Line 169" class="cls-2" x1="43.03" y1="14.89" x2="46.59" y2="14.89"/>
      <line id="Line_170" data-name="Line 170" class="cls-2" x1="39.63" y1="7.37" x2="42.15" y2="5.07"/>
      <line id="Line_171" data-name="Line 171" class="cls-2" x1="10.46" y1="34.13" x2="10.46" y2="34.6"/>
      <line id="Line_172" data-name="Line 172" class="cls-3" x1="10.46" y1="39.39" x2="10.46" y2="42.74"/>
      <line id="Line_173" data-name="Line 173" class="cls-2" x1="10.46" y1="45.13" x2="10.46" y2="45.61"/>
      <line id="Line_174" data-name="Line 174" class="cls-2" x1="14.79" y1="36.92" x2="14.79" y2="37.39"/>
      <line id="Line_175" data-name="Line 175" class="cls-4" x1="14.79" y1="41.55" x2="14.79" y2="44.46"/>
      <line id="Line_176" data-name="Line 176" class="cls-2" x1="14.79" y1="46.53" x2="14.79" y2="47"/>
      <path id="Path_121" data-name="Path 121" class="cls-2" d="M38.45,26c0,4.2-3.77,7.61-8.3,7.61H9.3a8.29,8.29,0,0,1-8.22-7.15A6.83,6.83,0,0,1,1,25.3a8.3,8.3,0,0,1,11.7-7.52c.29-4,3.9-7.08,8.29-7.08a8.69,8.69,0,0,1,3.14.58,7.61,7.61,0,0,1,5.15,7v.09h.86a8.81,8.81,0,0,1,5.17,1.65,8.07,8.07,0,0,1,1.5,1.42A7.22,7.22,0,0,1,38.45,26Z" transform="translate(0 0)"/>
      <path id="Path_122" data-name="Path 122" class="cls-2" d="M12.62,33.5s8.93.12,13.73,0c4.34-.11,5.46-4.18,4.34-6s-5.1-1-3.94,2.23" transform="translate(0 0)"/>
      <path id="Path_123" data-name="Path 123" class="cls-2" d="M20.22,39.87h6.13c2.75,0,4.46,1.6,4.06,3.22" transform="translate(0 0)"/>
      <path id="Path_124" data-name="Path 124" class="cls-2" d="M19.67,37s7.19-.09,13.2,0c3.23.05,4.6,1.88,4.6,3.55A4.35,4.35,0,0,1,35,44.46" transform="translate(0 0)"/>
    </g>
  </g>
</svg>
