<svg id="Layer_1" data-name="Layer 1" xmlns="http://www.w3.org/2000/svg" width="48" height="48" viewBox="0 0 48 48">
  <defs>
    <style>
      .cls-1 {
        fill: #ffd2d2;
        fill-opacity: 0;
      }

      .cls-2, .cls-3, .cls-4 {
        fill: none;
        stroke: #fff;
        stroke-linecap: round;
        stroke-linejoin: round;
        stroke-width: 2px;
      }

      .cls-3 {
        stroke-dasharray: 1.02 5.08;
      }

      .cls-4 {
        stroke-dasharray: 0.88 4.4;
      }
    </style>
  </defs>
  <g id="ic_weather_57" data-name="ic weather 57">
    <rect id="Rectangle_7" data-name="Rectangle 7" class="cls-1" width="48" height="48"/>
    <g id="Group_70" data-name="Group 70">
      <path id="Path_115" data-name="Path 115" class="cls-2" d="M46.13,17.43a12.17,12.17,0,0,1-7.68,7,7.68,7.68,0,0,0-2.85-3.94,8.74,8.74,0,0,0-5.2-1.67,6.17,6.17,0,0,0-.86,0v-.1a7.67,7.67,0,0,0-5.2-7.07,8.28,8.28,0,0,0-1.43-.41A12.09,12.09,0,0,1,32,1,12.25,12.25,0,0,0,46.13,17.43Z" transform="translate(0 0)"/>
      <line id="Line_160" data-name="Line 160" class="cls-2" x1="10.61" y1="34.05" x2="10.61" y2="34.53"/>
      <line id="Line_161" data-name="Line 161" class="cls-3" x1="10.61" y1="39.35" x2="10.61" y2="42.71"/>
      <line id="Line_162" data-name="Line 162" class="cls-2" x1="10.61" y1="45.12" x2="10.61" y2="45.6"/>
      <line id="Line_163" data-name="Line 163" class="cls-2" x1="14.96" y1="36.87" x2="14.96" y2="37.35"/>
      <line id="Line_164" data-name="Line 164" class="cls-4" x1="14.96" y1="41.52" x2="14.96" y2="44.44"/>
      <line id="Line_165" data-name="Line 165" class="cls-2" x1="14.96" y1="46.53" x2="14.96" y2="47"/>
      <path id="Path_116" data-name="Path 116" class="cls-2" d="M38.68,26.24c0,4.22-3.79,7.65-8.34,7.65h-21A8.34,8.34,0,0,1,1.08,26.7,7,7,0,0,1,1,25.58,8.36,8.36,0,0,1,12.78,18c.29-4,3.93-7.12,8.34-7.12a8.76,8.76,0,0,1,3.16.58,7.66,7.66,0,0,1,5.18,7.07v.1q.43,0,.87,0a8.84,8.84,0,0,1,5.2,1.66A7.82,7.82,0,0,1,37,21.73a7.21,7.21,0,0,1,1.65,4.51Z" transform="translate(0 0)"/>
      <path id="Path_117" data-name="Path 117" class="cls-2" d="M12.7,33.84s9,.12,13.8,0c4.38-.12,5.5-4.2,4.38-6s-5.13-1-4,2.25" transform="translate(0 0)"/>
      <path id="Path_118" data-name="Path 118" class="cls-2" d="M20.34,40.24H26.5c2.77,0,4.49,1.61,4.09,3.23" transform="translate(0 0)"/>
      <path id="Path_119" data-name="Path 119" class="cls-2" d="M19.79,37.33s7.23-.1,13.28,0c3.24,0,4.62,1.9,4.62,3.57a4.39,4.39,0,0,1-2.49,4" transform="translate(0 0)"/>
    </g>
  </g>
</svg>
