<svg id="Layer_1" data-name="Layer 1" xmlns="http://www.w3.org/2000/svg" width="48" height="48" viewBox="0 0 48 48">
  <defs>
    <style>
      .cls-1 {
        fill: #ffd2d2;
        fill-opacity: 0;
      }

      .cls-2, .cls-3 {
        fill: none;
        stroke: #fff;
        stroke-linecap: round;
        stroke-linejoin: round;
        stroke-width: 2px;
      }

      .cls-3 {
        stroke-dasharray: 1 5;
      }
    </style>
  </defs>
  <g id="ic_weather_6" data-name="ic weather 6">
    <rect id="Rectangle_7" data-name="Rectangle 7" class="cls-1" width="48" height="48"/>
    <g id="Group_163" data-name="Group 163">
      <path id="Path_165" data-name="Path 165" class="cls-2" d="M47,17.77a12.46,12.46,0,0,1-7.84,7.12,7.85,7.85,0,0,0-2.91-4,8.93,8.93,0,0,0-5.3-1.7,6.46,6.46,0,0,0-.88,0v-.1a7.85,7.85,0,0,0-5.31-7.23,8.11,8.11,0,0,0-1.46-.41A12.34,12.34,0,0,1,32.53,1,12.5,12.5,0,0,0,47,17.77Z" transform="translate(0 0)"/>
      <path id="Path_166" data-name="Path 166" class="cls-2" d="M39.47,27c0,4.31-3.87,7.81-8.52,7.81H9.53a8.52,8.52,0,0,1-8.45-7.34A7.28,7.28,0,0,1,1,26.3a8.51,8.51,0,0,1,8.53-8.48,8.28,8.28,0,0,1,3.5.75c.3-4.06,4-7.28,8.51-7.28a9.14,9.14,0,0,1,3.23.59,7.84,7.84,0,0,1,5.3,7.22v.1H31a9.1,9.1,0,0,1,5.31,1.7,7.94,7.94,0,0,1,1.54,1.47,7.35,7.35,0,0,1,1.36,2.56,7.06,7.06,0,0,1,.31,2Z" transform="translate(0 0)"/>
      <g id="Group_154" data-name="Group 154">
        <line id="Line_199" data-name="Line 199" class="cls-3" x1="20.14" y1="38.1" x2="20.14" y2="46.26"/>
        <line id="Line_200" data-name="Line 200" class="cls-3" x1="24.67" y1="36.17" x2="24.67" y2="44.33"/>
        <line id="Line_201" data-name="Line 201" class="cls-3" x1="15.59" y1="36.17" x2="15.59" y2="44.33"/>
      </g>
    </g>
  </g>
</svg>
