<svg id="Layer_1" data-name="Layer 1" xmlns="http://www.w3.org/2000/svg" width="453.9" height="357.03" viewBox="0 0 453.9 357.03">
  <defs>
    <style>
      .cls-1 {
        fill: #fff;
      }
    </style>
  </defs>
  <g>
    <path class="cls-1" d="M192.4,319.75H30.4a10,10,0,1,0,0,20h162a10,10,0,0,0,0-20Z" transform="translate(-14 -23.22)"/>
    <path class="cls-1" d="M435.8,360.25H50.9a10,10,0,1,0,0,20H435.8a10,10,0,0,0,0-20Z" transform="translate(-14 -23.22)"/>
    <path class="cls-1" d="M446.4,319.05H254a10,10,0,1,0,0,20H446.4a10,10,0,0,0,0-20Z" transform="translate(-14 -23.22)"/>
    <path class="cls-1" d="M127.29,301.3h122.4a86.86,86.86,0,0,0,65.11-28.85h57.3a8.81,8.81,0,1,0,0-17.6H326.71a78.18,78.18,0,0,0,6-16.45h50.23c46.87,0,85-36.15,85-80.67S429.67,77,382.79,77h0a86.19,86.19,0,0,0-22.88,3.26c-20-34.93-58.13-57-99.43-57a116.13,116.13,0,0,0-67.25,21.12A109.15,109.15,0,0,0,180,55.24H118.08a8.81,8.81,0,1,0,0,17.6h47.06a110.58,110.58,0,0,0-9.58,17.33,119.81,119.81,0,0,0-28.27-3.34C64.78,86.83,14,134.77,14,193.71,14,253,64.78,301.3,127.29,301.3ZM188.21,72.75h42.32a8.81,8.81,0,1,0,0-17.59H209.42a98.08,98.08,0,0,1,51-14.43c36.83,0,70.69,21.2,86.31,53.93a9.56,9.56,0,0,0,12.1,4.48,67.55,67.55,0,0,1,24-4.66c36.65,0,66.41,28.33,66.41,63.08s-29.85,63.16-66.41,63.16H334.61v-.18c0-21.46-8.83-41.61-24.92-56.74s-37.39-23.31-60.09-23.31a90.2,90.2,0,0,0-22.69,2.73c-11.91-21.38-31-37.83-53.77-47.33A90.93,90.93,0,0,1,188.21,72.75ZM127.1,104.33c37.67,0,71.53,20.85,86.23,53.14a9.58,9.58,0,0,0,11.9,4.75,70.33,70.33,0,0,1,24.28-4.14c36.64,0,66.41,28,66.41,62.38a60.73,60.73,0,0,1-10.61,34.22H259.46v.09a8.81,8.81,0,1,0,0,17.59h27.9a68.41,68.41,0,0,1-37.85,11.26H127.1c-52.18,0-94.68-40.38-94.68-90C32.42,144.36,74.92,104.33,127.1,104.33Z" transform="translate(-14 -23.22)"/>
  </g>
</svg>
